<?xml version="1.0" encoding="UTF-8"?>
<svg width="240px" height="180px" viewBox="0 0 240 180" version="1.1" xmlns="http://www.w3.org/2000/svg" xmlns:xlink="http://www.w3.org/1999/xlink">
    <!-- Generator: Sketch 41.2 (35397) - http://www.bohemiancoding.com/sketch -->
    <title>Group</title>
    <desc>Created with Sketch.</desc>
    <defs>
        <rect id="path-1" x="0" y="0" width="240" height="180" rx="8"></rect>
        <mask id="mask-2" maskContentUnits="userSpaceOnUse" maskUnits="objectBoundingBox" x="0" y="0" width="240" height="180" fill="white">
            <use xlink:href="#path-1"></use>
        </mask>
    </defs>
    <g id="Page-1" stroke="none" stroke-width="1" fill="none" fill-rule="evenodd">
        <g id="Artboard" transform="translate(-20.000000, -20.000000)">
            <g id="Group" transform="translate(20.000000, 20.000000)">
                <use id="Rectangle" stroke="#34295E" mask="url(#mask-2)" stroke-width="4" fill="#EEEEF0" xlink:href="#path-1"></use>
                <path d="M189.420745,151.229911 C189.420745,152.661279 189.543109,153.866625 189.787839,154.845982 C190.032569,155.82534 190.46084,156.315011 191.072666,156.315011 C191.439761,156.315011 191.837441,156.132954 192.265719,155.768834 C192.693997,155.404714 193.189568,154.808319 193.752447,153.979632 C194.315327,153.150945 194.957734,152.077434 195.679687,150.759068 C196.401641,149.440702 197.227593,147.827297 198.157568,145.918806 L199.258848,143.583426 L200.763931,144.751116 L199.662651,147.086496 C198.634784,149.195881 197.674233,151.085511 196.780968,152.755441 C195.887703,154.425371 195.037278,155.837885 194.229669,156.993025 C193.422059,158.148164 192.632816,159.03334 191.861916,159.648577 C191.091016,160.263814 190.326246,160.571429 189.567583,160.571429 C188.759973,160.571429 188.080857,160.345426 187.530215,159.893415 C186.979572,159.441404 186.52071,158.819898 186.153614,158.028878 C185.786519,157.237859 185.505084,156.321294 185.3093,155.279157 C185.113516,154.23702 184.978916,153.125843 184.905497,151.945592 C184.318145,153.150955 183.66962,154.274688 182.959902,155.316825 C182.250185,156.358962 181.509887,157.269248 180.738987,158.047712 C179.968087,158.826176 179.166608,159.441404 178.334526,159.893415 C177.502443,160.345426 176.670373,160.571429 175.838291,160.571429 C174.61464,160.571429 173.427717,160.307759 172.277485,159.780413 C171.127253,159.253067 170.10552,158.449503 169.212255,157.369699 C168.31899,156.289894 167.603165,154.927603 167.064759,153.282785 C166.526353,151.637966 166.257154,149.698114 166.257154,147.46317 C166.257154,144.851549 166.587534,142.459693 167.248306,140.287528 C167.909077,138.115363 168.802329,136.244567 169.928087,134.675084 C171.053846,133.1056 172.350896,131.8877 173.819277,131.021345 C175.287658,130.15499 176.829435,129.721819 178.444654,129.721819 C179.423574,129.721819 180.329062,129.947821 181.161145,130.399833 C181.993227,130.851844 182.721288,131.398016 183.34535,132.038365 C183.969412,132.678714 184.489456,133.356721 184.905497,134.072405 C185.321538,134.78809 185.602974,135.39704 185.749812,135.899275 L186.190324,132.245536 C186.23927,131.768413 186.465642,131.366631 186.869447,131.040179 C187.273251,130.713726 187.719877,130.456335 188.209337,130.267997 C188.698798,130.079659 189.176014,129.941546 189.641002,129.853655 C190.105989,129.765764 190.43637,129.721819 190.632154,129.721819 C190.92583,129.721819 191.121611,129.772042 191.219503,129.872489 C191.317395,129.972936 191.36634,130.173827 191.36634,130.475167 C191.36634,130.851843 191.262332,131.611462 191.054311,132.754046 C190.84629,133.89663 190.626037,135.353088 190.393543,137.123465 C190.161049,138.893843 189.940795,140.971807 189.732775,143.357422 C189.524754,145.743036 189.420745,148.367173 189.420745,151.229911 Z M185.382718,141.285714 C185.382718,140.130575 185.21141,138.994286 184.868788,137.876814 C184.526165,136.759342 184.061185,135.767443 183.473833,134.901088 C182.88648,134.034733 182.207365,133.337893 181.436465,132.810547 C180.665565,132.2832 179.851849,132.019531 178.995294,132.019531 C177.942954,132.019531 176.95793,132.327145 176.040192,132.942383 C175.122454,133.55762 174.327093,134.423962 173.654085,135.541434 C172.981077,136.658906 172.448797,138.002364 172.057229,139.571847 C171.665661,141.14133 171.46988,142.867736 171.46988,144.751116 C171.46988,148.517876 172.044987,151.386848 173.195218,153.358119 C174.34545,155.32939 175.87499,156.315011 177.783886,156.315011 C178.615968,156.315011 179.478629,155.96973 180.371894,155.279157 C181.265159,154.588585 182.084993,153.596686 182.831419,152.303432 C183.577846,151.010178 184.189663,149.43444 184.666886,147.576172 C185.14411,145.717904 185.382718,143.621105 185.382718,141.285714 Z" id="a" fill="#34295E"></path>
                <path d="M159.046498,155.787667 C159.487013,155.787667 159.99482,155.492609 160.569936,154.902483 C161.145052,154.312358 161.762986,153.502516 162.423758,152.472935 C163.084529,151.443354 163.781999,150.238009 164.51619,148.856864 C165.25038,147.475719 166.009032,145.981593 166.792169,144.374442 L167.159262,143.583426 L168.664345,144.751116 L168.297252,145.542132 C167.000182,148.203975 165.843849,150.482831 164.828219,152.378767 C163.812589,154.274703 162.864274,155.831607 161.983245,157.049526 C161.102217,158.267445 160.264029,159.158898 159.468656,159.723912 C158.673283,160.288926 157.859567,160.571429 157.027485,160.571429 C155.926199,160.571429 154.977884,160.201036 154.182511,159.46024 C153.387138,158.719444 152.726377,157.476432 152.200207,155.731166 C151.674037,153.985901 151.282475,151.681934 151.025508,148.819196 C150.768542,145.956459 150.64006,142.415758 150.64006,138.196987 C150.64006,132.220394 150.884787,127.0914 151.374247,122.809849 C151.863707,118.528299 152.530587,115.012709 153.374906,112.262974 C154.219225,109.51324 155.198131,107.491775 156.311653,106.198521 C157.425175,104.905267 158.593744,104.25865 159.817395,104.25865 C160.551585,104.25865 161.169519,104.566264 161.671216,105.181501 C162.172913,105.796739 162.423758,106.907916 162.423758,108.515067 C162.423758,109.770654 162.325867,111.202001 162.130083,112.809152 C161.934299,114.416303 161.677336,116.136431 161.359187,117.969587 C161.041038,119.802744 160.661712,121.704929 160.221197,123.6762 C159.780683,125.647471 159.315703,127.606157 158.826242,129.552316 C158.336782,131.498475 157.835093,133.406938 157.32116,135.277762 C156.807226,137.148586 156.305537,138.900103 155.816077,140.532366 C155.962915,143.621109 156.128105,146.151078 156.311653,148.122349 C156.4952,150.09362 156.715454,151.644247 156.972421,152.774275 C157.229388,153.904303 157.529178,154.689032 157.8718,155.128488 C158.214422,155.567943 158.605984,155.787667 159.046498,155.787667 Z M160.037651,109.419085 C160.037651,108.891738 159.976469,108.477401 159.854104,108.17606 C159.731739,107.874719 159.535958,107.724051 159.266755,107.724051 C158.997551,107.724051 158.728352,108.113277 158.459149,108.891741 C158.189946,109.670205 157.926865,110.724882 157.669898,112.055804 C157.412932,113.386725 157.180442,114.931074 156.972421,116.688895 C156.7644,118.446716 156.574737,120.311235 156.403426,122.282506 C156.232115,124.253777 156.097516,126.268963 155.999623,128.328125 C155.901731,130.387287 155.84055,132.371084 155.816077,134.279576 C156.403429,132.069743 156.947946,129.803444 157.449642,127.480608 C157.951339,125.157773 158.397965,122.904029 158.789533,120.719308 C159.181101,118.534587 159.487009,116.469178 159.707267,114.523019 C159.927524,112.57686 160.037651,110.875565 160.037651,109.419085 Z" id="l" fill="#34295E"></path>
                <path d="M135.864552,152.3976 C135.742187,152.598494 135.56476,152.943775 135.332267,153.433454 C135.099773,153.923133 134.806101,154.469305 134.451242,155.071987 C134.096384,155.674668 133.680349,156.302452 133.203125,156.955357 C132.725901,157.608262 132.181385,158.198379 131.569559,158.725725 C130.957734,159.253072 130.278618,159.692521 129.532191,160.044085 C128.785764,160.395649 127.959813,160.571429 127.054311,160.571429 C126.344594,160.571429 125.610414,160.42076 124.851751,160.11942 C124.093087,159.818079 123.389499,159.265629 122.740964,158.462054 C122.092429,157.658478 121.560149,156.559856 121.144108,155.166155 C120.728066,153.772454 120.520049,151.970714 120.520049,149.760882 C120.520049,147.651496 120.593467,145.535864 120.740305,143.413923 C120.887143,141.291982 121.06457,139.352129 121.27259,137.594308 C121.480611,135.836487 121.68251,134.367472 121.878294,133.187221 C122.074079,132.00697 122.220914,131.291296 122.318806,131.040179 C122.416699,130.814173 122.61248,130.613282 122.906156,130.4375 C123.199832,130.261718 123.536331,130.123605 123.915663,130.023158 C124.294994,129.922712 124.686557,129.847377 125.090361,129.797154 C125.494166,129.746931 125.842901,129.721819 126.136578,129.721819 C126.528146,129.721819 126.840172,129.822265 127.072666,130.023158 C127.305159,130.224052 127.421404,130.563056 127.421404,131.040179 C127.421404,131.266184 127.378577,131.711911 127.292922,132.377372 C127.207266,133.042833 127.103257,133.852674 126.980892,134.80692 C126.858527,135.761165 126.730046,136.815842 126.595444,137.970982 C126.460843,139.126122 126.332361,140.300078 126.209996,141.492885 C126.087631,142.685692 125.983622,143.865926 125.897967,145.033622 C125.812311,146.201317 125.769484,147.262272 125.769484,148.216518 C125.769484,150.953697 126.057038,152.987717 126.632154,154.318638 C127.207269,155.64956 128.155585,156.315011 129.477127,156.315011 C130.602886,156.315011 131.746982,155.473781 132.90945,153.791295 C134.071918,152.108809 135.081415,149.660451 135.937971,146.44615 C136.060336,145.090116 136.176581,143.639935 136.286709,142.095564 C136.396838,140.551192 136.500847,139.082178 136.598739,137.688477 C136.696631,136.294775 136.788403,135.045485 136.874059,133.940569 C136.959714,132.835653 137.03925,132.044645 137.112669,131.567522 C137.186088,131.215958 137.38187,130.9209 137.700019,130.682338 C138.018168,130.443777 138.37914,130.255442 138.782944,130.117327 C139.186749,129.979212 139.578311,129.878767 139.957643,129.815988 C140.336975,129.753208 140.624528,129.721819 140.820312,129.721819 C141.236354,129.721819 141.523907,129.815987 141.682982,130.004325 C141.842057,130.192663 141.921593,130.487721 141.921593,130.889509 C141.921593,131.241073 141.891002,131.912802 141.829819,132.904715 C141.768637,133.896629 141.695219,135.051751 141.609563,136.370117 L141.334243,140.607701 C141.236351,142.114405 141.144579,143.564586 141.058923,144.958287 C140.973268,146.351988 140.89985,147.613834 140.838667,148.743862 C140.777485,149.87389 140.746894,150.727676 140.746894,151.305246 C140.746894,153.012843 140.838666,154.356301 141.022214,155.335658 C141.205761,156.315016 141.615678,156.804688 142.251977,156.804688 C142.716964,156.804688 143.224771,156.497073 143.775414,155.881836 C144.326057,155.266598 144.925637,154.406535 145.574172,153.301618 C146.222707,152.196702 146.926295,150.884634 147.684959,149.365374 C148.443622,147.846114 149.263456,146.182487 150.144484,144.374442 L150.511578,143.583426 L152.01666,144.751116 L151.649567,145.542132 C150.474862,147.927746 149.440893,150.055934 148.547628,151.926758 C147.654363,153.797582 146.803939,155.373319 145.996329,156.654018 C145.18872,157.934716 144.368886,158.907781 143.536803,159.573242 C142.704721,160.238703 141.77476,160.571429 140.746894,160.571429 C139.792446,160.571429 139.003203,160.383093 138.379142,160.006417 C137.75508,159.629741 137.259509,159.089847 136.892413,158.386719 C136.525318,157.68359 136.262237,156.829804 136.103163,155.825335 C135.944088,154.820866 135.864552,153.678299 135.864552,152.3976 Z" id="u" fill="#34295E"></path>
                <path d="M111.063316,151.229911 C111.063316,152.661279 111.185679,153.866625 111.430409,154.845982 C111.675139,155.82534 112.103411,156.315011 112.715236,156.315011 C113.082331,156.315011 113.480012,156.132954 113.908289,155.768834 C114.336567,155.404714 114.832138,154.808319 115.395018,153.979632 C115.957897,153.150945 116.600304,152.077434 117.322258,150.759068 C118.044212,149.440702 118.870164,147.827297 119.800138,145.918806 L120.901418,143.583426 L122.406501,144.751116 L121.305221,147.086496 C120.277354,149.195881 119.316803,151.085511 118.423538,152.755441 C117.530273,154.425371 116.679848,155.837885 115.872239,156.993025 C115.064629,158.148164 114.275387,159.03334 113.504487,159.648577 C112.733587,160.263814 111.968817,160.571429 111.210153,160.571429 C110.402544,160.571429 109.723428,160.345426 109.172785,159.893415 C108.622142,159.441404 108.16328,158.819898 107.796185,158.028878 C107.42909,157.237859 107.147654,156.321294 106.95187,155.279157 C106.756086,154.23702 106.621486,153.125843 106.548067,151.945592 C105.960715,153.150955 105.31219,154.274688 104.602472,155.316825 C103.892755,156.358962 103.152457,157.269248 102.381557,158.047712 C101.610658,158.826176 100.809178,159.441404 99.9770959,159.893415 C99.1450134,160.345426 98.3129434,160.571429 97.4808609,160.571429 C96.2572102,160.571429 95.0702869,160.307759 93.9200552,159.780413 C92.7698236,159.253067 91.7480906,158.449503 90.8548256,157.369699 C89.9615605,156.289894 89.2457356,154.927603 88.7073293,153.282785 C88.168923,151.637966 87.8997239,149.698114 87.8997239,147.46317 C87.8997239,144.851549 88.2301046,142.459693 88.890876,140.287528 C89.5516474,138.115363 90.444899,136.244567 91.5706576,134.675084 C92.6964163,133.1056 93.9934666,131.8877 95.4618474,131.021345 C96.9302282,130.15499 98.472005,129.721819 100.087224,129.721819 C101.066144,129.721819 101.971632,129.947821 102.803715,130.399833 C103.635797,130.851844 104.363859,131.398016 104.98792,132.038365 C105.611982,132.678714 106.132026,133.356721 106.548067,134.072405 C106.964109,134.78809 107.245544,135.39704 107.392382,135.899275 L107.832894,132.245536 C107.88184,131.768413 108.108212,131.366631 108.512017,131.040179 C108.915822,130.713726 109.362447,130.456335 109.851908,130.267997 C110.341368,130.079659 110.818585,129.941546 111.283572,129.853655 C111.748559,129.765764 112.07894,129.721819 112.274724,129.721819 C112.5684,129.721819 112.764181,129.772042 112.862073,129.872489 C112.959965,129.972936 113.008911,130.173827 113.008911,130.475167 C113.008911,130.851843 112.904902,131.611462 112.696881,132.754046 C112.488861,133.89663 112.268607,135.353088 112.036113,137.123465 C111.80362,138.893843 111.583366,140.971807 111.375345,143.357422 C111.167325,145.743036 111.063316,148.367173 111.063316,151.229911 Z M107.025289,141.285714 C107.025289,140.130575 106.85398,138.994286 106.511358,137.876814 C106.168736,136.759342 105.703755,135.767443 105.116403,134.901088 C104.529051,134.034733 103.849935,133.337893 103.079035,132.810547 C102.308135,132.2832 101.494419,132.019531 100.637864,132.019531 C99.5855244,132.019531 98.6005003,132.327145 97.6827623,132.942383 C96.7650243,133.55762 95.9696633,134.423962 95.2966554,135.541434 C94.6236475,136.658906 94.0913674,138.002364 93.6997992,139.571847 C93.308231,141.14133 93.1124498,142.867736 93.1124498,144.751116 C93.1124498,148.517876 93.687557,151.386848 94.8377887,153.358119 C95.9880203,155.32939 97.5175607,156.315011 99.4264558,156.315011 C100.258538,156.315011 101.121199,155.96973 102.014464,155.279157 C102.907729,154.588585 103.727563,153.596686 104.47399,152.303432 C105.220417,151.010178 105.832233,149.43444 106.309457,147.576172 C106.78668,145.717904 107.025289,143.621105 107.025289,141.285714 Z" id="a" fill="#34295E"></path>
                <path d="M83.0755149,136.747685 C82.4937677,140.960669 81.6476028,144.538951 80.5369947,147.482639 C79.4263865,150.426326 78.0778111,152.829852 76.4912281,154.693287 C74.904645,156.556722 73.0933232,157.907017 71.0572082,158.744213 C69.0210933,159.581409 66.786689,160 64.3539283,160 C60.9163317,160 57.7035491,158.973776 54.7154844,156.921296 C51.7274196,154.868817 49.1492608,151.81715 46.9809306,147.766204 C44.8126004,143.715258 43.1070492,138.69216 41.8642258,132.696759 C40.6214024,126.701359 40,119.760842 40,111.875 C40,103.61107 40.7800583,95.5903167 42.3401983,87.8125 C43.9003383,80.0346833 46.1215213,72.7430896 49.0038139,65.9375 C51.8861065,59.1319104 55.3500942,52.9070498 59.395881,47.2627315 C63.4416678,41.6184131 67.9633617,36.7843565 72.9610984,32.7604167 C77.9588351,28.7364768 83.3663579,25.6037921 89.1838291,23.3622685 C95.0013004,21.120745 101.083111,20 107.429443,20 C112.876712,20 117.847931,20.837183 122.343249,22.5115741 C126.838568,24.1859652 130.699196,26.5084728 133.925248,29.4791667 C137.1513,32.4498605 139.63691,35.9606279 141.382151,40.0115741 C143.127392,44.0625203 144,48.4374765 144,53.1365741 C144,58.8078987 143.233163,64.0875527 141.699466,68.9756944 C140.165769,73.8638362 138.037135,78.3333131 135.313501,82.3842593 C132.589867,86.4352054 129.350642,90.0539964 125.595728,93.2407407 C121.840815,96.4274851 117.755425,99.1280753 113.339436,101.342593 C108.923446,103.55711 104.269539,105.271985 99.3775744,106.487269 C94.4856099,107.702552 89.5276122,108.391203 84.5034325,108.553241 C84.3447742,115.304818 84.1728969,120.98956 83.9877956,125.607639 C83.8026942,130.225718 83.4986037,133.939029 83.0755149,136.747685 Z M69.2723112,102.800926 C69.5367417,102.908951 69.8540536,103.016975 70.2242563,103.125 C70.5415729,103.233025 70.9249914,103.341049 71.3745233,103.449074 C71.8240551,103.557099 72.3661295,103.665123 73.0007628,103.773148 C72.8949906,97.0215712 72.7759986,90.8237165 72.6437834,85.1793981 C72.5115681,79.5350798 72.3661335,74.6065025 72.2074752,70.3935185 C71.9959308,65.4783705 71.8108322,61.0494024 71.6521739,57.1064815 C72.0223766,56.7824058 72.4454591,56.5123468 72.921434,56.2962963 C73.3445228,56.0802458 73.8469333,55.8912045 74.4286804,55.7291667 C75.0104275,55.5671288 75.7243792,55.4861111 76.5705568,55.4861111 C79.0033175,55.4861111 80.960074,55.9317085 82.4408848,56.8229167 C83.9216957,57.7141248 84.66209,59.2129524 84.66209,61.3194444 L84.66209,85.3009259 C84.66209,92.3765786 84.6092047,98.7499716 84.5034325,104.421296 C91.4315119,104.421296 97.7116423,103.071001 103.344012,100.37037 C108.976382,97.6697396 113.775724,94.0644516 117.742182,89.5543981 C121.708639,85.0443447 124.775987,79.8457084 126.944317,73.9583333 C129.112648,68.0709582 130.196796,61.9136124 130.196796,55.4861111 C130.196796,51.3811523 129.654722,47.4787994 128.570557,43.7789352 C127.486392,40.079071 125.833726,36.8383627 123.61251,34.056713 C121.391293,31.2750633 118.601593,29.0605792 115.243326,27.4131944 C111.885058,25.7658097 107.931881,24.9421296 103.383677,24.9421296 C98.7825857,24.9421296 94.2476705,25.8333244 89.7787948,27.6157407 C85.3099192,29.3981571 81.0526518,32.0717414 77.006865,35.6365741 C72.9610782,39.2014067 69.2326639,43.6303748 65.8215103,48.9236111 C62.4103567,54.2168475 59.4487794,60.4011992 56.9366895,67.4768519 C54.4245997,74.5525045 52.4678433,82.478737 51.0663616,91.255787 C49.6648798,100.032837 48.9641495,109.687447 48.9641495,120.219907 C48.9641495,124.756967 49.1889121,129.172432 49.6384439,133.466435 C50.0879758,137.760438 50.8415915,141.56827 51.8993135,144.890046 C52.9570355,148.211822 54.3717176,150.871904 56.143402,152.87037 C57.9150864,154.868837 60.1230481,155.868056 62.7673532,155.868056 C64.1952779,155.868056 65.5438533,155.570991 66.8131198,154.976852 C68.0823862,154.382713 69.1929777,153.153945 70.1449275,151.290509 C71.0968774,149.427074 71.8637144,146.75349 72.4454615,143.269676 C73.0272086,139.785862 73.3180778,135.127344 73.3180778,129.293981 C73.3180778,125.621124 73.2916351,121.98883 73.238749,118.396991 C73.1858629,114.805152 73.1594203,111.307887 73.1594203,107.905093 C72.3661288,107.797067 71.6786197,107.662038 71.0968726,107.5 C70.5151255,107.337962 70.0127151,107.202933 69.5896262,107.094907 C69.1136513,106.93287 68.7170115,106.770834 68.3996949,106.608796 L69.2723112,102.800926 Z" id="P" fill="#34295E"></path>
            </g>
        </g>
    </g>
</svg>